<svg width="25" height="38" viewBox="0 0 25 38" fill="none" xmlns="http://www.w3.org/2000/svg">
<path d="M24.2175 4.10239C23.8932 3.60575 23.4194 3.59149 22.8795 3.57523C22.8183 3.57339 22.7563 3.57153 22.6936 3.56893C22.6458 3.56673 22.5931 3.56758 22.538 3.56846C22.319 3.57198 22.0629 3.57609 21.9339 3.39212C21.7843 3.17883 21.7985 2.76663 21.8102 2.42635C21.8139 2.31882 21.8173 2.21841 21.8153 2.1338C21.7943 1.34332 21.7504 0.503628 21.4453 0.22292C21.2152 0.0123098 20.5268 0.041487 19.892 0.0683954C19.6862 0.0771184 19.486 0.085603 19.3089 0.085603H5.79596C5.52389 0.085603 5.23869 0.0634489 4.95847 0.0416813C4.41245 -0.000733815 3.88533 -0.0416812 3.511 0.085603C2.96775 0.271231 2.93096 1.24667 2.89633 2.16519L2.89446 2.21461C2.86538 2.97288 2.67746 3.55799 2.05465 3.49906C1.33029 3.43161 0.609497 3.41035 0.281987 4.06594C-0.10481 4.84161 -0.0250374 5.65358 0.117847 7.10792C0.138258 7.31567 0.159956 7.53652 0.181766 7.77225H24.4264C24.4403 7.59995 24.455 7.42986 24.4696 7.26253C24.5831 5.95406 24.682 4.81402 24.2175 4.10239Z" fill="#8047F8"/>
<path fill-rule="evenodd" clip-rule="evenodd" d="M2.06995 9.2147C2.4486 14.3395 2.82312 19.4701 3.19765 24.6009L3.19788 24.604C3.40123 27.3898 3.60459 30.1757 3.80861 32.9606H4.5822C4.63491 33.3965 4.69523 33.9347 4.75882 34.5021C4.88791 35.6539 5.03052 36.9264 5.15042 37.7083H5.23598C6.02395 37.42 11.4713 35.0916 11.4737 25.8218C11.4727 25.7954 11.4736 25.7689 11.4763 25.7427H10.1305C10.0654 25.7421 10.0022 25.7203 9.95078 25.6808C9.89935 25.6413 9.86249 25.5861 9.84585 25.5238C9.71471 25.1999 9.60896 24.8664 9.52956 24.5264C8.73785 24.9736 8.10914 25.6564 7.73304 26.4775C7.37602 25.6365 7.32929 24.6983 7.60101 23.8267C7.87274 22.9551 8.44564 22.2057 9.2196 21.7093C9.22957 19.0043 10.2424 16.3968 12.0662 14.3804L12.0947 14.3553C12.1477 14.3095 12.2156 14.284 12.286 14.2834C12.3267 14.2838 12.3669 14.2925 12.404 14.309C12.4416 14.3257 12.4752 14.35 12.5027 14.3804C14.3479 16.3996 15.3553 19.0321 15.324 21.7531C16.1124 22.2356 16.697 22.9845 16.9692 23.8608C17.2414 24.7371 17.1828 25.6813 16.8043 26.5181C16.4302 25.6957 15.8009 25.0123 15.0077 24.5671C14.9593 24.8966 14.87 25.219 14.742 25.527C14.6978 25.6583 14.6092 25.7427 14.5206 25.7427H13.0854C13.0877 25.7584 13.0893 25.7742 13.0902 25.7901L13.0908 25.7937V25.8014C13.0913 25.815 13.0913 25.8287 13.0908 25.8424C13.1105 35.3783 18.9021 37.5428 19.3903 37.7083H19.5573C19.5999 36.9572 19.7387 35.9208 19.874 34.9104C19.9672 34.2142 20.0588 33.5302 20.1161 32.9606H20.8986C21.1491 29.4527 21.4067 25.9546 21.6643 22.4564L21.6645 22.4545L21.6646 22.4535C21.9941 17.9789 22.3236 13.5042 22.6382 9.00873H2.12006C2.061 9.02027 2.06503 9.11688 2.06995 9.2147ZM12.286 14.2834H12.2845H12.2876H12.286Z" fill="#8047F8"/>
</svg>
